<?xml version="1.0" encoding="utf-8"?>
<!-- Generator: Adobe Illustrator 16.0.0, SVG Export Plug-In . SVG Version: 6.00 Build 0)  -->
<!DOCTYPE svg PUBLIC "-//W3C//DTD SVG 1.1//EN" "http://www.w3.org/Graphics/SVG/1.1/DTD/svg11.dtd">
<svg version="1.1" id="Calque_1" xmlns="http://www.w3.org/2000/svg" xmlns:xlink="http://www.w3.org/1999/xlink" x="0px" y="0px"
	 width="135.366px" height="75.042px" viewBox="0 0 135.366 75.042" enable-background="new 0 0 135.366 75.042"
	 xml:space="preserve">
<g>
	<path d="M14.018,62.701L7.234,7.661H17.73l4.032,37.44l3.584-37.44h10.496l-6.784,55.04H14.018z"/>
	<path d="M37.89,63.405h5.376c0.768,0,1.152-0.32,1.152-0.96c0-0.298-0.022-0.533-0.064-0.704l-7.296-45.888h10.688l2.112,22.848
		l1.024,11.648l1.216-11.648l2.496-22.848h10.752l-8.704,49.279c-0.299,1.834-0.907,3.189-1.824,4.064
		c-0.918,0.874-2.358,1.312-4.32,1.312H37.89V63.405z"/>
	<path d="M68.29,15.853h11.2v5.951c0.469-1.92,1.28-3.477,2.432-4.672c1.152-1.193,2.688-1.792,4.608-1.792
		c3.157,0,5.493,0.972,7.008,2.912c1.514,1.942,2.272,4.704,2.272,8.288v36.16H84.801V27.693c0-1.024-0.203-1.898-0.608-2.624
		c-0.406-0.726-1.035-1.088-1.888-1.088c-1.152,0-1.91,0.522-2.272,1.567c-0.363,1.046-0.544,2.443-0.544,4.192v32.96h-11.2V15.853z
		"/>
	<path d="M99.201,49.132l0.064-3.712h11.2l0.064,5.504c0,1.11,0.213,1.952,0.64,2.528c0.426,0.576,1.13,0.864,2.112,0.864
		c1.493,0,2.24-1.216,2.24-3.648c0-1.792-0.352-3.2-1.056-4.224c-0.704-1.024-1.824-2.112-3.36-3.264l-5.952-4.608
		c-2.048-1.578-3.52-3.21-4.416-4.896c-0.896-1.685-1.344-4.063-1.344-7.136c0-2.389,0.629-4.426,1.888-6.112
		c1.258-1.685,2.933-2.953,5.024-3.808c2.09-0.853,4.416-1.28,6.976-1.28c9.088,0,13.632,4.523,13.632,13.568v0.896h-11.584v-1.792
		c0-1.108-0.182-2.058-0.544-2.848c-0.363-0.789-0.971-1.184-1.824-1.184c-0.768,0-1.355,0.224-1.76,0.672
		c-0.406,0.448-0.608,1.056-0.608,1.824c0,1.707,0.661,3.029,1.984,3.968l6.912,5.056c2.474,1.835,4.373,3.83,5.696,5.984
		c1.322,2.155,1.984,4.875,1.984,8.16c0,4.352-1.238,7.702-3.712,10.048c-2.475,2.347-5.931,3.52-10.368,3.52
		C103.83,63.212,99.201,58.52,99.201,49.132z"/>
</g>
</svg>
